<svg xmlns="http://www.w3.org/2000/svg" viewBox="0 0 256 256">
  <rect width="256" height="256" fill="#25D366"/>
  <path d="M128 24C68.7 24 20 72.7 20 132c0 21.8 6.8 42 18.7 58.9L24 240l52.6-17.3C111 228.2 131 236 152 236c59.3 0 108-48.7 108-108S187.3 24 128 24zm0 199.5c-19.6 0-38.8-5.4-55.5-15.6l-4-2.3-40 13.1 13.4-39.5-2.4-3.9c-11.2-17.9-17.1-38.7-17.1-60.2 0-50.4 41-91.4 91.4-91.4 50.4 0 91.4 41 91.4 91.4-0.1 50.4-41.1 91.4-91.6 91.4z" fill="white"/>
  <path d="M110 96.2c-1.4-3-2.8-3.1-4.1-3.1-1.1 0-2.2 0-3.4 0-1.2 0-3.1 0.4-4.7 2.1-1.6 1.7-6.2 6.1-6.2 14.8 0 8.7 6.4 17.2 7.3 18.3 0.9 1.1 12.8 19.8 31.2 27.5 15.4 6.1 18.5 4.9 21.8 4.6 3.3-0.3 10.6-4.3 12.1-8.5 1.5-4.2 1.5-7.8 1-8.6-0.4-0.9-1.6-1.3-3.4-2.2-1.8-0.9-10.6-5.2-12.2-5.8-1.6-0.6-2.8-1-4 0.8-1.2 1.8-4.7 5.9-5.7 7-1 1.1-1.9 1.2-3.7 0.4-1.8-0.8-7.6-2.8-14.5-8.9-5.4-4.8-9-10.7-10-12.5-1-1.8-0.1-2.8 0.8-3.7 0.8-0.8 1.8-2 2.7-3 0.9-1 1.2-1.8 1.8-3 0.6-1.2 0.3-2.3-0.3-3.2-0.6-0.9-4-9.7-5.5-13.3z" fill="white"/>
</svg>
